ffmpeg started on 2025-05-13 at 10:17:32
Report written to "D:\Convert\FFMetrics\reports\psnr_report-6.txt"
Log level: 32
Command line:
ffmpeg -hide_banner -nostdin -i "G:\\\xc0\xed\xe8\xec\xe5\\\xce\xed\xe3\xee\xe8\xed\xe3\xe8\\!_35_\xcb\xe5\xf2\xee_2024\\DreamCast-1\\\xd3 \xec\xee\xe5\xe9 \xe6\xe5\xed\xfb \xed\xe5\xf2 \xfd\xec\xee\xf6\xe8\xe9\\[DC] Boku no Tsuma wa Kanjou ga Nai - 07_Telegram_HEVC.mkv" -i "G:\\\xc0\xed\xe8\xec\xe5\\\xce\xed\xe3\xee\xe8\xed\xe3\xe8\\!_35_\xcb\xe5\xf2\xee_2024\\DreamCast-1\\\xd3 \xec\xee\xe5\xe9 \xe6\xe5\xed\xfb \xed\xe5\xf2 \xfd\xec\xee\xf6\xe8\xe9\\[DC] Boku no Tsuma wa Kanjou ga Nai - 07_Telegram.mp4" -lavfi "[0:v]settb=AVTB,setpts=PTS-STARTPTS,format=pix_fmts=yuv420p10,fps=24000/1001,scale=1920:1080:flags=bicubic[main];[1:v]settb=AVTB,setpts=PTS-STARTPTS,format=pix_fmts=yuv420p,fps=24000/1001,scale=1920:1080:flags=bicubic[ref];[main][ref]psnr=eof_action=endall:stats_file='D\\:/Convert/FFMetrics/logs/psnr_logfile-6.txt'" -f null -
Input #0, matroska,webm, from 'G:\Аниме\Онгоинги\!_35_Лето_2024\DreamCast-1\У моей жены нет эмоций\[DC] Boku no Tsuma wa Kanjou ga Nai - 07_Telegram_HEVC.mkv':
  Metadata:
    COMPATIBLE_BRANDS: isomiso2avc1mp41
    MAJOR_BRAND     : isom
    MINOR_VERSION   : 512
    ENCODER         : Lavf61.7.100
  Duration: 00:23:46.60, start: -0.021000, bitrate: 1000 kb/s
  Stream #0:0: Video: hevc (Main 10), yuv420p10le(tv, bt709, progressive), 1920x1080 [SAR 1:1 DAR 16:9], 23.98 fps, 23.98 tbr, 1k tbn (default)
      Metadata:
        HANDLER_NAME    : VideoHandler
        VENDOR_ID       : [0][0][0][0]
        ENCODER         : Lavc61.19.100 libx265
        BPS             : 803124
        DURATION        : 00:23:46.508708333
        NUMBER_OF_FRAMES: 34202
        NUMBER_OF_BYTES : 143207911
        _STATISTICS_WRITING_APP: mkvpropedit v66.0.0 ('Josie') 64-bit
        _STATISTICS_WRITING_DATE_UTC: 2025-05-11 13:00:08
        _STATISTICS_TAGS: BPS DURATION NUMBER_OF_FRAMES NUMBER_OF_BYTES
  Stream #0:1: Audio: aac (LC), 48000 Hz, stereo, fltp (default)
      Metadata:
        HANDLER_NAME    : SoundHandler
        VENDOR_ID       : [0][0][0][0]
        ENCODER         : Lavc61.19.100 aac
        BPS             : 193260
        DURATION        : 00:23:46.602000000
        NUMBER_OF_FRAMES: 66873
        NUMBER_OF_BYTES : 34463258
        _STATISTICS_WRITING_APP: mkvpropedit v66.0.0 ('Josie') 64-bit
        _STATISTICS_WRITING_DATE_UTC: 2025-05-11 13:00:08
        _STATISTICS_TAGS: BPS DURATION NUMBER_OF_FRAMES NUMBER_OF_BYTES
Input #1, mov,mp4,m4a,3gp,3g2,mj2, from 'G:\Аниме\Онгоинги\!_35_Лето_2024\DreamCast-1\У моей жены нет эмоций\[DC] Boku no Tsuma wa Kanjou ga Nai - 07_Telegram.mp4':
  Metadata:
    major_brand     : isom
    minor_version   : 512
    compatible_brands: isomiso2avc1mp41
    encoder         : Lavf61.1.100
  Duration: 00:23:46.57, start: 0.000000, bitrate: 3868 kb/s
  Stream #1:0[0x1](und): Video: h264 (High) (avc1 / 0x31637661), yuv420p(tv, bt709, progressive), 1920x1080 [SAR 1:1 DAR 16:9], 3720 kb/s, 23.98 fps, 23.98 tbr, 24k tbn (default)
      Metadata:
        handler_name    : VideoHandler
        vendor_id       : [0][0][0][0]
        encoder         : Lavc61.3.100 h264_qsv
  Stream #1:1[0x2](und): Audio: aac (HE-AACv2) (mp4a / 0x6134706D), 48000 Hz, stereo, fltp, 144 kb/s (default)
      Metadata:
        handler_name    : SoundHandler
        vendor_id       : [0][0][0][0]
Stream mapping:
  Stream #0:0 (hevc) -> settb:default
  Stream #1:0 (h264) -> settb:default
  psnr:default -> Stream #0:0 (wrapped_avframe)
  Stream #0:1 -> #0:1 (aac (native) -> pcm_s16le (native))
Output #0, null, to 'pipe:':
  Metadata:
    COMPATIBLE_BRANDS: isomiso2avc1mp41
    MAJOR_BRAND     : isom
    MINOR_VERSION   : 512
    encoder         : Lavf61.7.100
  Stream #0:0: Video: wrapped_avframe, yuv420p10le(tv, bt709, progressive), 1920x1080 [SAR 1:1 DAR 16:9], q=2-31, 200 kb/s, 23.98 fps, 23.98 tbn
      Metadata:
        encoder         : Lavc61.19.100 wrapped_avframe
  Stream #0:1: Audio: pcm_s16le, 48000 Hz, stereo, s16, 1536 kb/s (default)
      Metadata:
        HANDLER_NAME    : SoundHandler
        VENDOR_ID       : [0][0][0][0]
        _STATISTICS_TAGS: BPS DURATION NUMBER_OF_FRAMES NUMBER_OF_BYTES
        BPS             : 193260
        DURATION        : 00:23:46.602000000
        NUMBER_OF_FRAMES: 66873
        NUMBER_OF_BYTES : 34463258
        _STATISTICS_WRITING_APP: mkvpropedit v66.0.0 ('Josie') 64-bit
        _STATISTICS_WRITING_DATE_UTC: 2025-05-11 13:00:08
        encoder         : Lavc61.19.100 pcm_s16le
frame=  167 fps=0.0 q=-0.0 size=N/A time=00:00:06.96 bitrate=N/A speed=13.6x    frame=  407 fps=395 q=-0.0 size=N/A time=00:00:16.97 bitrate=N/A speed=16.5x    frame=  647 fps=418 q=-0.0 size=N/A time=00:00:26.98 bitrate=N/A speed=17.4x    frame=  881 fps=428 q=-0.0 size=N/A time=00:00:36.74 bitrate=N/A speed=17.8x    frame= 1099 fps=427 q=-0.0 size=N/A time=00:00:45.83 bitrate=N/A speed=17.8x    frame= 1325 fps=428 q=-0.0 size=N/A time=00:00:55.26 bitrate=N/A speed=17.8x    frame= 1515 fps=420 q=-0.0 size=N/A time=00:01:03.18 bitrate=N/A speed=17.5x    frame= 1755 fps=425 q=-0.0 size=N/A time=00:01:13.19 bitrate=N/A speed=17.7x    frame= 1945 fps=420 q=-0.0 size=N/A time=00:01:21.12 bitrate=N/A speed=17.5x    frame= 2191 fps=425 q=-0.0 size=N/A time=00:01:31.38 bitrate=N/A speed=17.7x    frame= 2441 fps=431 q=-0.0 size=N/A time=00:01:41.81 bitrate=N/A speed=  18x    frame= 2667 fps=431 q=-0.0 size=N/A time=00:01:51.23 bitrate=N/A speed=  18x    frame= 2898 fps=433 q=-0.0 size=N/A time=00:02:00.87 bitrate=N/A speed=  18x    frame= 3117 fps=432 q=-0.0 size=N/A time=00:02:10.00 bitrate=N/A speed=  18x    frame= 3315 fps=429 q=-0.0 size=N/A time=00:02:18.26 bitrate=N/A speed=17.9x    frame= 3538 fps=429 q=-0.0 size=N/A time=00:02:27.56 bitrate=N/A speed=17.9x    frame= 3728 fps=426 q=-0.0 size=N/A time=00:02:35.48 bitrate=N/A speed=17.8x    frame= 3885 fps=419 q=-0.0 size=N/A time=00:02:42.03 bitrate=N/A speed=17.5x    frame= 4073 fps=416 q=-0.0 size=N/A time=00:02:49.87 bitrate=N/A speed=17.4x    frame= 4222 fps=409 q=-0.0 size=N/A time=00:02:56.09 bitrate=N/A speed=17.1x    frame= 4433 fps=410 q=-0.0 size=N/A time=00:03:04.89 bitrate=N/A speed=17.1x    frame= 4644 fps=409 q=-0.0 size=N/A time=00:03:13.69 bitrate=N/A speed=17.1x    frame= 4833 fps=408 q=-0.0 size=N/A time=00:03:21.57 bitrate=N/A speed=  17x    frame= 5026 fps=406 q=-0.0 size=N/A time=00:03:29.62 bitrate=N/A speed=16.9x    frame= 5251 fps=408 q=-0.0 size=N/A time=00:03:39.01 bitrate=N/A speed=  17x    frame= 5501 fps=411 q=-0.0 size=N/A time=00:03:49.43 bitrate=N/A speed=17.1x    frame= 5755 fps=413 q=-0.0 size=N/A time=00:04:00.03 bitrate=N/A speed=17.2x    frame= 6007 fps=416 q=-0.0 size=N/A time=00:04:10.54 bitrate=N/A speed=17.4x    frame= 6247 fps=418 q=-0.0 size=N/A time=00:04:20.55 bitrate=N/A speed=17.4x    frame= 6525 fps=422 q=-0.0 size=N/A time=00:04:32.14 bitrate=N/A speed=17.6x    frame= 6777 fps=424 q=-0.0 size=N/A time=00:04:42.65 bitrate=N/A speed=17.7x    frame= 6996 fps=424 q=-0.0 size=N/A time=00:04:51.79 bitrate=N/A speed=17.7x    frame= 7228 fps=425 q=-0.0 size=N/A time=00:05:01.46 bitrate=N/A speed=17.7x    frame= 7488 fps=427 q=-0.0 size=N/A time=00:05:12.31 bitrate=N/A speed=17.8x    frame= 7756 fps=430 q=-0.0 size=N/A time=00:05:23.48 bitrate=N/A speed=17.9x    frame= 8015 fps=432 q=-0.0 size=N/A time=00:05:34.29 bitrate=N/A speed=  18x    frame= 8269 fps=433 q=-0.0 size=N/A time=00:05:44.88 bitrate=N/A speed=18.1x    frame= 8515 fps=435 q=-0.0 size=N/A time=00:05:55.14 bitrate=N/A speed=18.1x    frame= 8744 fps=435 q=-0.0 size=N/A time=00:06:04.69 bitrate=N/A speed=18.1x    frame= 8969 fps=435 q=-0.0 size=N/A time=00:06:14.08 bitrate=N/A speed=18.1x    frame= 9237 fps=437 q=-0.0 size=N/A time=00:06:25.25 bitrate=N/A speed=18.2x    frame= 9514 fps=439 q=-0.0 size=N/A time=00:06:36.81 bitrate=N/A speed=18.3x    frame= 9767 fps=440 q=-0.0 size=N/A time=00:06:47.36 bitrate=N/A speed=18.4x    frame=10031 fps=442 q=-0.0 size=N/A time=00:06:58.37 bitrate=N/A speed=18.4x    frame=10278 fps=443 q=-0.0 size=N/A time=00:07:08.67 bitrate=N/A speed=18.5x    frame=10528 fps=444 q=-0.0 size=N/A time=00:07:19.10 bitrate=N/A speed=18.5x    frame=10770 fps=444 q=-0.0 size=N/A time=00:07:29.19 bitrate=N/A speed=18.5x    frame=11018 fps=445 q=-0.0 size=N/A time=00:07:39.54 bitrate=N/A speed=18.6x    frame=11251 fps=445 q=-0.0 size=N/A time=00:07:49.26 bitrate=N/A speed=18.6x    frame=11460 fps=444 q=-0.0 size=N/A time=00:07:57.97 bitrate=N/A speed=18.5x    frame=11695 fps=445 q=-0.0 size=N/A time=00:08:07.77 bitrate=N/A speed=18.5x    frame=11928 fps=445 q=-0.0 size=N/A time=00:08:17.49 bitrate=N/A speed=18.5x    frame=12205 fps=446 q=-0.0 size=N/A time=00:08:29.05 bitrate=N/A speed=18.6x    frame=12454 fps=447 q=-0.0 size=N/A time=00:08:39.43 bitrate=N/A speed=18.6x    frame=12684 fps=447 q=-0.0 size=N/A time=00:08:49.02 bitrate=N/A speed=18.6x    frame=12942 fps=448 q=-0.0 size=N/A time=00:08:59.78 bitrate=N/A speed=18.7x    frame=13183 fps=448 q=-0.0 size=N/A time=00:09:09.84 bitrate=N/A speed=18.7x    frame=13414 fps=448 q=-0.0 size=N/A time=00:09:19.47 bitrate=N/A speed=18.7x    frame=13675 fps=449 q=-0.0 size=N/A time=00:09:30.36 bitrate=N/A speed=18.7x    frame=13956 fps=451 q=-0.0 size=N/A time=00:09:42.08 bitrate=N/A speed=18.8x    frame=14206 fps=452 q=-0.0 size=N/A time=00:09:52.50 bitrate=N/A speed=18.8x    frame=14457 fps=452 q=-0.0 size=N/A time=00:10:02.97 bitrate=N/A speed=18.9x    frame=14706 fps=452 q=-0.0 size=N/A time=00:10:13.36 bitrate=N/A speed=18.9x    frame=14966 fps=453 q=-0.0 size=N/A time=00:10:24.20 bitrate=N/A speed=18.9x    frame=15208 fps=454 q=-0.0 size=N/A time=00:10:34.30 bitrate=N/A speed=18.9x    frame=15460 fps=454 q=-0.0 size=N/A time=00:10:44.85 bitrate=N/A speed=18.9x    frame=15707 fps=455 q=-0.0 size=N/A time=00:10:55.11 bitrate=N/A speed=  19x    frame=15948 fps=455 q=-0.0 size=N/A time=00:11:05.16 bitrate=N/A speed=  19x    frame=16192 fps=455 q=-0.0 size=N/A time=00:11:15.34 bitrate=N/A speed=  19x    frame=16441 fps=455 q=-0.0 size=N/A time=00:11:25.72 bitrate=N/A speed=  19x    frame=16693 fps=456 q=-0.0 size=N/A time=00:11:36.23 bitrate=N/A speed=  19x    frame=16965 fps=457 q=-0.0 size=N/A time=00:11:47.58 bitrate=N/A speed=19.1x    frame=17207 fps=457 q=-0.0 size=N/A time=00:11:57.67 bitrate=N/A speed=19.1x    frame=17469 fps=458 q=-0.0 size=N/A time=00:12:08.60 bitrate=N/A speed=19.1x    frame=17721 fps=458 q=-0.0 size=N/A time=00:12:19.11 bitrate=N/A speed=19.1x    frame=17965 fps=458 q=-0.0 size=N/A time=00:12:29.29 bitrate=N/A speed=19.1x    frame=18198 fps=458 q=-0.0 size=N/A time=00:12:39.00 bitrate=N/A speed=19.1x    frame=18421 fps=458 q=-0.0 size=N/A time=00:12:48.30 bitrate=N/A speed=19.1x    frame=18686 fps=459 q=-0.0 size=N/A time=00:12:59.36 bitrate=N/A speed=19.1x    frame=18928 fps=459 q=-0.0 size=N/A time=00:13:09.45 bitrate=N/A speed=19.1x    frame=19178 fps=459 q=-0.0 size=N/A time=00:13:19.88 bitrate=N/A speed=19.1x    frame=19447 fps=460 q=-0.0 size=N/A time=00:13:31.10 bitrate=N/A speed=19.2x    frame=19724 fps=461 q=-0.0 size=N/A time=00:13:42.65 bitrate=N/A speed=19.2x    frame=19951 fps=460 q=-0.0 size=N/A time=00:13:52.12 bitrate=N/A speed=19.2x    frame=20177 fps=460 q=-0.0 size=N/A time=00:14:01.54 bitrate=N/A speed=19.2x    frame=20427 fps=460 q=-0.0 size=N/A time=00:14:11.97 bitrate=N/A speed=19.2x    frame=20677 fps=461 q=-0.0 size=N/A time=00:14:22.40 bitrate=N/A speed=19.2x    frame=20911 fps=461 q=-0.0 size=N/A time=00:14:32.16 bitrate=N/A speed=19.2x    frame=21185 fps=461 q=-0.0 size=N/A time=00:14:43.59 bitrate=N/A speed=19.2x    frame=21407 fps=461 q=-0.0 size=N/A time=00:14:52.85 bitrate=N/A speed=19.2x    frame=21647 fps=461 q=-0.0 size=N/A time=00:15:02.86 bitrate=N/A speed=19.2x    frame=21889 fps=461 q=-0.0 size=N/A time=00:15:12.95 bitrate=N/A speed=19.2x    frame=22134 fps=461 q=-0.0 size=N/A time=00:15:23.17 bitrate=N/A speed=19.2x    frame=22376 fps=461 q=-0.0 size=N/A time=00:15:33.26 bitrate=N/A speed=19.2x    frame=22605 fps=461 q=-0.0 size=N/A time=00:15:42.81 bitrate=N/A speed=19.2x    frame=22845 fps=461 q=-0.0 size=N/A time=00:15:52.82 bitrate=N/A speed=19.2x    frame=23105 fps=462 q=-0.0 size=N/A time=00:16:03.67 bitrate=N/A speed=19.3x    frame=23358 fps=462 q=-0.0 size=N/A time=00:16:14.22 bitrate=N/A speed=19.3x    frame=23612 fps=462 q=-0.0 size=N/A time=00:16:24.81 bitrate=N/A speed=19.3x    frame=23840 fps=462 q=-0.0 size=N/A time=00:16:34.32 bitrate=N/A speed=19.3x    frame=24081 fps=462 q=-0.0 size=N/A time=00:16:44.37 bitrate=N/A speed=19.3x    frame=24319 fps=462 q=-0.0 size=N/A time=00:16:54.30 bitrate=N/A speed=19.3x    frame=24570 fps=462 q=-0.0 size=N/A time=00:17:04.77 bitrate=N/A speed=19.3x    frame=24812 fps=463 q=-0.0 size=N/A time=00:17:14.86 bitrate=N/A speed=19.3x    frame=25062 fps=463 q=-0.0 size=N/A time=00:17:25.29 bitrate=N/A speed=19.3x    frame=25306 fps=463 q=-0.0 size=N/A time=00:17:35.47 bitrate=N/A speed=19.3x    frame=25553 fps=463 q=-0.0 size=N/A time=00:17:45.77 bitrate=N/A speed=19.3x    frame=25829 fps=464 q=-0.0 size=N/A time=00:17:57.28 bitrate=N/A speed=19.3x    frame=26064 fps=464 q=-0.0 size=N/A time=00:18:07.08 bitrate=N/A speed=19.3x    frame=26328 fps=464 q=-0.0 size=N/A time=00:18:18.09 bitrate=N/A speed=19.4x    frame=26582 fps=464 q=-0.0 size=N/A time=00:18:28.69 bitrate=N/A speed=19.4x    frame=26839 fps=465 q=-0.0 size=N/A time=00:18:39.40 bitrate=N/A speed=19.4x    frame=27106 fps=465 q=-0.0 size=N/A time=00:18:50.58 bitrate=N/A speed=19.4x    frame=27360 fps=465 q=-0.0 size=N/A time=00:19:01.14 bitrate=N/A speed=19.4x    frame=27592 fps=465 q=-0.0 size=N/A time=00:19:10.81 bitrate=N/A speed=19.4x    frame=27843 fps=465 q=-0.0 size=N/A time=00:19:21.28 bitrate=N/A speed=19.4x    frame=28074 fps=465 q=-0.0 size=N/A time=00:19:30.91 bitrate=N/A speed=19.4x    frame=28324 fps=465 q=-0.0 size=N/A time=00:19:41.34 bitrate=N/A speed=19.4x    frame=28559 fps=465 q=-0.0 size=N/A time=00:19:51.14 bitrate=N/A speed=19.4x    frame=28816 fps=466 q=-0.0 size=N/A time=00:20:01.86 bitrate=N/A speed=19.4x    frame=29062 fps=466 q=-0.0 size=N/A time=00:20:12.12 bitrate=N/A speed=19.4x    frame=29286 fps=465 q=-0.0 size=N/A time=00:20:21.47 bitrate=N/A speed=19.4x    frame=29534 fps=466 q=-0.0 size=N/A time=00:20:31.81 bitrate=N/A speed=19.4x    frame=29807 fps=466 q=-0.0 size=N/A time=00:20:43.20 bitrate=N/A speed=19.4x    frame=30067 fps=466 q=-0.0 size=N/A time=00:20:54.08 bitrate=N/A speed=19.5x    frame=30314 fps=467 q=-0.0 size=N/A time=00:21:04.34 bitrate=N/A speed=19.5x    frame=30554 fps=467 q=-0.0 size=N/A time=00:21:14.35 bitrate=N/A speed=19.5x    frame=30821 fps=467 q=-0.0 size=N/A time=00:21:25.49 bitrate=N/A speed=19.5x    frame=31036 fps=466 q=-0.0 size=N/A time=00:21:34.45 bitrate=N/A speed=19.5x    frame=31275 fps=466 q=-0.0 size=N/A time=00:21:44.42 bitrate=N/A speed=19.5x    frame=31531 fps=467 q=-0.0 size=N/A time=00:21:55.10 bitrate=N/A speed=19.5x    frame=31764 fps=466 q=-0.0 size=N/A time=00:22:04.82 bitrate=N/A speed=19.5x    frame=32019 fps=467 q=-0.0 size=N/A time=00:22:15.45 bitrate=N/A speed=19.5x    frame=32210 fps=466 q=-0.0 size=N/A time=00:22:23.42 bitrate=N/A speed=19.4x    frame=32441 fps=466 q=-0.0 size=N/A time=00:22:33.06 bitrate=N/A speed=19.4x    frame=32639 fps=465 q=-0.0 size=N/A time=00:22:41.31 bitrate=N/A speed=19.4x    frame=32812 fps=464 q=-0.0 size=N/A time=00:22:48.53 bitrate=N/A speed=19.4x    frame=33010 fps=464 q=-0.0 size=N/A time=00:22:56.79 bitrate=N/A speed=19.3x    frame=33221 fps=463 q=-0.0 size=N/A time=00:23:05.59 bitrate=N/A speed=19.3x    frame=33404 fps=463 q=-0.0 size=N/A time=00:23:13.22 bitrate=N/A speed=19.3x    frame=33583 fps=462 q=-0.0 size=N/A time=00:23:20.69 bitrate=N/A speed=19.3x    frame=33792 fps=461 q=-0.0 size=N/A time=00:23:29.40 bitrate=N/A speed=19.2x    frame=34018 fps=461 q=-0.0 size=N/A time=00:23:38.83 bitrate=N/A speed=19.2x    frame=34185 fps=460 q=-0.0 size=N/A time=00:23:45.79 bitrate=N/A speed=19.2x    [Parsed_psnr_10 @ 00000152b83ec200] PSNR y:48.498400 u:52.104258 v:52.407604 average:49.429265 min:38.889868 max:inf
[out#0/null @ 00000152ab2e2d40] video:14696KiB audio:267492KiB subtitle:0KiB other streams:0KiB global headers:0KiB muxing overhead: unknown
frame=34202 fps=460 q=-0.0 Lsize=N/A time=00:23:46.50 bitrate=N/A speed=19.2x    
